<svg xmlns="http://www.w3.org/2000/svg" xmlns:xlink="http://www.w3.org/1999/xlink" width="500" zoomAndPan="magnify" viewBox="0 0 375 374.999991" height="500" preserveAspectRatio="xMidYMid meet" version="1.2"><defs><clipPath id="e20e4bec11"><path d="M 63.449219 55.050781 L 311.550781 55.050781 L 311.550781 303.148438 L 63.449219 303.148438 Z M 63.449219 55.050781 "/></clipPath><clipPath id="3385162311"><path d="M 187.5 55.050781 C 118.988281 55.050781 63.449219 110.589844 63.449219 179.101562 C 63.449219 247.609375 118.988281 303.148438 187.5 303.148438 C 256.011719 303.148438 311.550781 247.609375 311.550781 179.101562 C 311.550781 110.589844 256.011719 55.050781 187.5 55.050781 Z M 187.5 55.050781 "/></clipPath><clipPath id="fe734dcb49"><path d="M 278.199219 129.945312 L 286.15625 129.945312 L 286.15625 137.96875 L 278.199219 137.96875 Z M 278.199219 129.945312 "/></clipPath><clipPath id="2593ad823f"><path d="M 282.175781 129.945312 C 279.980469 129.945312 278.199219 131.738281 278.199219 133.949219 C 278.199219 136.160156 279.980469 137.949219 282.175781 137.949219 C 284.375 137.949219 286.15625 136.160156 286.15625 133.949219 C 286.15625 131.738281 284.375 129.945312 282.175781 129.945312 Z M 282.175781 129.945312 "/></clipPath><clipPath id="bbc14e27b1"><path d="M 274.21875 160.792969 L 292.617188 160.792969 L 292.617188 179.191406 L 274.21875 179.191406 Z M 274.21875 160.792969 "/></clipPath><clipPath id="47fc7b40d1"><path d="M 283.417969 160.792969 C 278.335938 160.792969 274.21875 164.910156 274.21875 169.992188 C 274.21875 175.070312 278.335938 179.191406 283.417969 179.191406 C 288.496094 179.191406 292.617188 175.070312 292.617188 169.992188 C 292.617188 164.910156 288.496094 160.792969 283.417969 160.792969 Z M 283.417969 160.792969 "/></clipPath><clipPath id="c903945b8d"><path d="M 73.183594 185.726562 L 91.582031 185.726562 L 91.582031 204.125 L 73.183594 204.125 Z M 73.183594 185.726562 "/></clipPath><clipPath id="b0ec488634"><path d="M 82.382812 185.726562 C 77.304688 185.726562 73.183594 189.847656 73.183594 194.925781 C 73.183594 200.007812 77.304688 204.125 82.382812 204.125 C 87.464844 204.125 91.582031 200.007812 91.582031 194.925781 C 91.582031 189.847656 87.464844 185.726562 82.382812 185.726562 Z M 82.382812 185.726562 "/></clipPath><clipPath id="733a51a956"><path d="M 248.472656 150.058594 L 259.457031 150.058594 L 259.457031 160.792969 L 248.472656 160.792969 Z M 248.472656 150.058594 "/></clipPath><clipPath id="2a2d487860"><path d="M 253.953125 150.058594 C 250.925781 150.058594 248.472656 152.460938 248.472656 155.425781 C 248.472656 158.390625 250.925781 160.792969 253.953125 160.792969 C 256.976562 160.792969 259.429688 158.390625 259.429688 155.425781 C 259.429688 152.460938 256.976562 150.058594 253.953125 150.058594 Z M 253.953125 150.058594 "/></clipPath><clipPath id="86c30527e5"><path d="M 99.15625 160.792969 L 110.140625 160.792969 L 110.140625 171.523438 L 99.15625 171.523438 Z M 99.15625 160.792969 "/></clipPath><clipPath id="f89a6d54f4"><path d="M 104.636719 160.792969 C 101.609375 160.792969 99.15625 163.195312 99.15625 166.160156 C 99.15625 169.121094 101.609375 171.523438 104.636719 171.523438 C 107.664062 171.523438 110.117188 169.121094 110.117188 166.160156 C 110.117188 163.195312 107.664062 160.792969 104.636719 160.792969 Z M 104.636719 160.792969 "/></clipPath><clipPath id="c78dfd7afa"><path d="M 270.238281 196.121094 L 278.199219 196.121094 L 278.199219 204.140625 L 270.238281 204.140625 Z M 270.238281 196.121094 "/></clipPath><clipPath id="722b445c84"><path d="M 274.21875 196.121094 C 272.019531 196.121094 270.238281 197.914062 270.238281 200.121094 C 270.238281 202.332031 272.019531 204.125 274.21875 204.125 C 276.417969 204.125 278.199219 202.332031 278.199219 200.121094 C 278.199219 197.914062 276.417969 196.121094 274.21875 196.121094 Z M 274.21875 196.121094 "/></clipPath><clipPath id="a808c7b4db"><path d="M 83.625 129.945312 L 91.582031 129.945312 L 91.582031 137.96875 L 83.625 137.96875 Z M 83.625 129.945312 "/></clipPath><clipPath id="96e992b7e5"><path d="M 87.601562 129.945312 C 85.40625 129.945312 83.625 131.738281 83.625 133.949219 C 83.625 136.160156 85.40625 137.949219 87.601562 137.949219 C 89.800781 137.949219 91.582031 136.160156 91.582031 133.949219 C 91.582031 131.738281 89.800781 129.945312 87.601562 129.945312 Z M 87.601562 129.945312 "/></clipPath><clipPath id="821b1f6256"><path d="M 127.085938 167.386719 L 247.6875 167.386719 L 247.6875 224.675781 L 127.085938 224.675781 Z M 127.085938 167.386719 "/></clipPath><clipPath id="8754e7d927"><path d="M 203 115.175781 L 231 115.175781 L 231 138 L 203 138 Z M 203 115.175781 "/></clipPath></defs><g id="7a2f17998e"><g clip-rule="nonzero" clip-path="url(#e20e4bec11)"><g clip-rule="nonzero" clip-path="url(#3385162311)"><path style=" stroke:none;fill-rule:nonzero;fill:#001b3d;fill-opacity:1;" d="M 63.449219 55.050781 L 311.550781 55.050781 L 311.550781 303.148438 L 63.449219 303.148438 Z M 63.449219 55.050781 "/></g></g><g clip-rule="nonzero" clip-path="url(#fe734dcb49)"><g clip-rule="nonzero" clip-path="url(#2593ad823f)"><path style=" stroke:none;fill-rule:nonzero;fill:#ffffff;fill-opacity:1;" d="M 278.199219 129.945312 L 286.15625 129.945312 L 286.15625 137.9375 L 278.199219 137.9375 Z M 278.199219 129.945312 "/></g></g><g clip-rule="nonzero" clip-path="url(#bbc14e27b1)"><g clip-rule="nonzero" clip-path="url(#47fc7b40d1)"><path style=" stroke:none;fill-rule:nonzero;fill:#ffffff;fill-opacity:1;" d="M 274.21875 160.792969 L 292.617188 160.792969 L 292.617188 179.191406 L 274.21875 179.191406 Z M 274.21875 160.792969 "/></g></g><g clip-rule="nonzero" clip-path="url(#c903945b8d)"><g clip-rule="nonzero" clip-path="url(#b0ec488634)"><path style=" stroke:none;fill-rule:nonzero;fill:#ffffff;fill-opacity:1;" d="M 73.183594 185.726562 L 91.582031 185.726562 L 91.582031 204.125 L 73.183594 204.125 Z M 73.183594 185.726562 "/></g></g><g clip-rule="nonzero" clip-path="url(#733a51a956)"><g clip-rule="nonzero" clip-path="url(#2a2d487860)"><path style=" stroke:none;fill-rule:nonzero;fill:#6191dc;fill-opacity:1;" d="M 248.472656 150.058594 L 259.414062 150.058594 L 259.414062 160.792969 L 248.472656 160.792969 Z M 248.472656 150.058594 "/></g></g><g clip-rule="nonzero" clip-path="url(#86c30527e5)"><g clip-rule="nonzero" clip-path="url(#f89a6d54f4)"><path style=" stroke:none;fill-rule:nonzero;fill:#6191dc;fill-opacity:1;" d="M 99.15625 160.792969 L 110.101562 160.792969 L 110.101562 171.523438 L 99.15625 171.523438 Z M 99.15625 160.792969 "/></g></g><g clip-rule="nonzero" clip-path="url(#c78dfd7afa)"><g clip-rule="nonzero" clip-path="url(#722b445c84)"><path style=" stroke:none;fill-rule:nonzero;fill:#6191dc;fill-opacity:1;" d="M 270.238281 196.121094 L 278.199219 196.121094 L 278.199219 204.109375 L 270.238281 204.109375 Z M 270.238281 196.121094 "/></g></g><g clip-rule="nonzero" clip-path="url(#a808c7b4db)"><g clip-rule="nonzero" clip-path="url(#96e992b7e5)"><path style=" stroke:none;fill-rule:nonzero;fill:#ffffff;fill-opacity:1;" d="M 83.625 129.945312 L 91.582031 129.945312 L 91.582031 137.9375 L 83.625 137.9375 Z M 83.625 129.945312 "/></g></g><g clip-rule="nonzero" clip-path="url(#821b1f6256)"><path style=" stroke:none;fill-rule:nonzero;fill:#d7f0f8;fill-opacity:1;" d="M 174.828125 174.089844 C 174.722656 173.699219 174.574219 173.039062 174.363281 172.398438 C 174.238281 172.027344 174.03125 171.648438 173.535156 171.710938 C 173.21875 171.75 173.003906 172.261719 173.058594 172.761719 C 173.0625 172.796875 173.074219 172.832031 173.074219 172.867188 C 173.15625 174.363281 173.800781 175.703125 174.238281 177.101562 C 174.261719 177.179688 174.359375 177.238281 174.425781 177.304688 C 174.46875 177.230469 174.542969 177.15625 174.550781 177.074219 C 174.640625 176.179688 174.71875 175.28125 174.828125 174.089844 Z M 208.777344 198.746094 C 208.449219 198.453125 208.269531 198.195312 208.023438 198.089844 C 207.253906 197.765625 206.460938 197.800781 205.683594 198.089844 C 204.503906 198.53125 203.660156 199.464844 202.667969 200.175781 C 202.621094 200.210938 202.621094 200.308594 202.601562 200.378906 C 202.6875 200.394531 202.777344 200.433594 202.859375 200.421875 C 203.269531 200.371094 203.6875 200.324219 204.09375 200.238281 C 205.382812 199.96875 206.671875 199.703125 207.949219 199.382812 C 208.214844 199.316406 208.425781 199.027344 208.777344 198.746094 Z M 206.574219 202.933594 C 205.972656 203.144531 205.269531 203.277344 204.6875 203.613281 C 203.660156 204.210938 202.699219 204.921875 201.71875 205.597656 C 201.632812 205.65625 201.589844 205.785156 201.53125 205.882812 C 201.636719 205.886719 201.746094 205.914062 201.847656 205.894531 C 203.246094 205.585938 204.644531 205.28125 206.039062 204.953125 C 206.648438 204.8125 207.253906 204.652344 207.835938 204.4375 C 208.019531 204.371094 208.238281 204.089844 208.234375 203.914062 C 208.234375 203.714844 208.039062 203.433594 207.851562 203.339844 C 207.492188 203.160156 207.074219 203.085938 206.574219 202.933594 Z M 162.289062 190.425781 C 161.539062 190.421875 161.125 190.640625 161.027344 191.035156 C 160.921875 191.457031 161.128906 191.734375 161.464844 191.96875 C 163.019531 193.046875 164.792969 193.632812 166.566406 194.210938 C 166.640625 194.234375 166.734375 194.195312 166.820312 194.1875 C 166.796875 194.105469 166.800781 193.996094 166.75 193.941406 C 165.953125 193.085938 165.179688 192.207031 164.339844 191.394531 C 163.738281 190.816406 162.988281 190.464844 162.289062 190.425781 Z M 210.949219 181.933594 C 209.957031 181.933594 208.503906 182.605469 207.78125 183.535156 C 206.707031 184.925781 205.726562 186.386719 204.710938 187.824219 C 204.667969 187.886719 204.6875 187.992188 204.679688 188.074219 C 204.761719 188.054688 204.855469 188.054688 204.917969 188.007812 C 207.117188 186.390625 209.316406 184.773438 211.5 183.132812 C 211.664062 183.007812 211.8125 182.699219 211.773438 182.519531 C 211.730469 182.320312 211.480469 182.144531 211.285156 182.003906 C 211.175781 181.925781 211 181.941406 210.949219 181.933594 Z M 211.160156 170.84375 C 211.953125 170.917969 212.746094 170.988281 213.539062 171.058594 C 215.054688 171.195312 216.570312 171.328125 218.085938 171.464844 C 219.117188 171.558594 220.152344 171.648438 221.183594 171.757812 C 222.421875 171.890625 223.660156 172.027344 224.894531 172.191406 C 226.324219 172.378906 227.75 172.578125 229.171875 172.804688 C 232.652344 173.363281 236.109375 174.023438 239.476562 175.09375 C 241.414062 175.710938 243.296875 176.441406 244.984375 177.597656 C 246.023438 178.304688 246.917969 179.160156 247.382812 180.363281 C 247.992188 181.953125 247.628906 183.445312 246.839844 184.863281 C 245.996094 186.367188 244.90625 187.683594 243.707031 188.917969 C 242.644531 190.015625 241.566406 191.101562 240.542969 192.234375 C 239.503906 193.382812 238.503906 194.585938 238.320312 196.195312 C 238.222656 197.074219 238.261719 197.96875 238.308594 198.851562 C 238.382812 200.339844 238.628906 201.828125 238.582031 203.308594 C 238.507812 205.65625 237.523438 207.6875 235.988281 209.453125 C 233.796875 211.980469 231.082031 213.828125 228.191406 215.460938 C 225.296875 217.09375 222.246094 218.371094 219.105469 219.433594 C 215.617188 220.613281 212.054688 221.511719 208.4375 222.179688 C 206.101562 222.609375 203.757812 222.996094 201.410156 223.351562 C 199.964844 223.570312 198.503906 223.707031 197.050781 223.855469 C 195.339844 224.03125 193.628906 224.1875 191.917969 224.335938 C 191.136719 224.40625 190.351562 224.449219 189.566406 224.484375 C 188.144531 224.539062 186.722656 224.605469 185.300781 224.621094 C 182.195312 224.660156 179.089844 224.6875 175.984375 224.6875 C 174.804688 224.6875 173.625 224.621094 172.449219 224.550781 C 170.515625 224.429688 168.582031 224.289062 166.648438 224.140625 C 165.257812 224.035156 163.863281 223.933594 162.476562 223.777344 C 160.917969 223.605469 159.363281 223.410156 157.816406 223.160156 C 155.734375 222.820312 153.652344 222.460938 151.585938 222.035156 C 149.34375 221.570312 147.144531 220.921875 145.027344 220.027344 C 142.519531 218.964844 140.214844 217.578125 138.378906 215.527344 C 136.511719 213.445312 135.308594 211.019531 134.972656 208.21875 C 134.828125 207.019531 134.78125 205.800781 134.765625 204.589844 C 134.753906 203.550781 134.875 202.511719 134.882812 201.46875 C 134.898438 199.539062 134.304688 197.828125 132.925781 196.433594 C 131.695312 195.191406 130.4375 193.972656 129.222656 192.714844 C 128.449219 191.914062 127.765625 191.039062 127.375 189.972656 C 126.769531 188.324219 127.167969 186.828125 128.089844 185.425781 C 129.007812 184.03125 130.136719 182.816406 131.445312 181.796875 C 133.054688 180.554688 134.679688 179.328125 136.371094 178.203125 C 138.363281 176.875 140.566406 175.9375 142.804688 175.101562 C 146.546875 173.703125 150.382812 172.605469 154.265625 171.667969 C 154.769531 171.546875 155.28125 171.445312 155.785156 171.335938 C 155.785156 171.335938 155.816406 171.332031 155.816406 171.332031 L 155.847656 171.332031 C 155.867188 171.828125 155.886719 172.324219 155.914062 172.824219 C 155.980469 174.183594 156.066406 175.546875 156.117188 176.90625 C 156.179688 178.597656 156.21875 180.285156 156.261719 181.976562 C 156.289062 183.066406 156.300781 184.152344 156.335938 185.242188 C 156.371094 186.3125 157.273438 187.164062 158.332031 187.148438 C 159.398438 187.132812 160.238281 186.265625 160.226562 185.160156 C 160.214844 183.539062 160.1875 181.917969 160.15625 180.296875 C 160.144531 179.601562 160.136719 178.90625 160.070312 178.214844 C 160.042969 177.949219 160.109375 177.875 160.332031 177.8125 C 160.941406 177.640625 161.550781 177.453125 162.160156 177.273438 C 163.304688 176.941406 164.445312 176.613281 165.589844 176.28125 C 165.660156 177.332031 165.730469 178.378906 165.800781 179.425781 C 165.453125 179.265625 165.117188 179.070312 164.757812 178.957031 C 164.304688 178.8125 163.960938 179.082031 163.996094 179.558594 C 164.011719 179.785156 164.09375 180.042969 164.230469 180.222656 C 164.542969 180.652344 164.914062 181.039062 165.25 181.449219 C 166.546875 183.03125 167.835938 184.621094 169.132812 186.203125 C 169.195312 186.277344 169.3125 186.3125 169.402344 186.367188 C 169.40625 186.261719 169.4375 186.152344 169.410156 186.058594 C 169.160156 185.144531 168.898438 184.234375 168.640625 183.324219 C 169.324219 183.09375 169.835938 182.417969 169.835938 181.691406 C 169.832031 181.03125 169.800781 180.371094 169.761719 179.710938 C 169.699219 178.652344 169.625 177.589844 169.546875 176.527344 C 169.414062 174.777344 169.28125 173.023438 169.136719 171.273438 C 169.054688 170.226562 168.953125 169.179688 168.859375 168.132812 L 168.886719 168.136719 C 170.234375 167.949219 171.574219 167.71875 172.929688 167.589844 C 174.125 167.476562 175.328125 167.441406 176.53125 167.453125 C 177.566406 167.460938 178.605469 167.578125 179.640625 167.648438 C 178.796875 170.113281 177.925781 172.570312 177.117188 175.042969 C 176.632812 176.527344 176.3125 178.070312 175.785156 179.539062 C 174.941406 181.878906 173.921875 184.160156 173.105469 186.511719 C 172.355469 188.675781 171.753906 190.890625 171.128906 193.097656 C 170.648438 194.792969 170.234375 196.503906 169.792969 198.207031 C 169.296875 199.859375 168.75 201.496094 168.324219 203.167969 C 167.941406 204.652344 167.652344 206.164062 167.40625 207.675781 C 167.269531 208.511719 167.277344 209.363281 167.066406 210.195312 C 166.972656 210.566406 167.023438 210.996094 167.101562 211.382812 C 167.164062 211.683594 167.457031 211.847656 167.757812 211.6875 C 168.070312 211.515625 168.035156 211.6875 168.023438 211.886719 C 168.019531 211.96875 168.019531 212.050781 168.027344 212.128906 C 168.046875 212.433594 167.957031 212.832031 168.363281 212.90625 C 168.757812 212.980469 168.800781 212.578125 168.921875 212.3125 C 168.957031 212.242188 168.992188 212.167969 169.027344 212.097656 C 169.058594 212.171875 169.074219 212.265625 169.125 212.324219 C 169.273438 212.484375 169.457031 212.769531 169.585938 212.75 C 169.769531 212.722656 169.953125 212.484375 170.066406 212.296875 C 170.175781 212.117188 170.195312 211.878906 170.25 211.667969 C 170.269531 211.59375 170.285156 211.519531 170.304688 211.441406 C 170.351562 211.511719 170.390625 211.585938 170.445312 211.644531 C 170.601562 211.796875 170.761719 211.9375 170.921875 212.085938 C 171.054688 211.917969 171.273438 211.765625 171.300781 211.582031 C 171.402344 210.851562 171.441406 210.113281 171.515625 209.378906 C 171.527344 209.253906 171.609375 209.136719 171.660156 209.015625 C 171.699219 209.117188 171.746094 209.214844 171.777344 209.320312 C 171.808594 209.429688 171.808594 209.554688 171.855469 209.65625 C 171.941406 209.839844 172.054688 210.015625 172.15625 210.195312 C 172.328125 210.046875 172.625 209.921875 172.65625 209.746094 C 172.773438 209.09375 172.835938 208.429688 172.851562 207.765625 C 172.863281 207.308594 172.628906 206.804688 172.746094 206.390625 C 173.179688 204.890625 173.710938 203.417969 174.210938 201.933594 C 174.398438 201.375 174.597656 200.824219 174.792969 200.265625 C 174.859375 200.148438 174.941406 200.035156 174.988281 199.90625 C 175.527344 198.414062 176.0625 196.917969 176.597656 195.421875 C 177.355469 195.945312 178.113281 196.46875 178.871094 196.988281 C 178.976562 197.042969 179.078125 197.097656 179.183594 197.152344 C 179.285156 197.195312 179.390625 197.238281 179.492188 197.28125 C 179.621094 197.328125 179.753906 197.371094 179.882812 197.417969 C 180.007812 197.449219 180.132812 197.484375 180.253906 197.519531 C 180.308594 197.527344 180.363281 197.535156 180.417969 197.542969 C 180.714844 197.617188 181.007812 197.691406 181.304688 197.765625 C 181.363281 197.792969 181.421875 197.816406 181.480469 197.84375 C 182.46875 198.199219 183.457031 198.554688 184.445312 198.910156 C 184.503906 198.925781 184.5625 198.9375 184.625 198.949219 L 184.65625 198.949219 C 184.726562 198.964844 184.800781 198.980469 184.871094 198.996094 C 184.933594 199.011719 184.996094 199.027344 185.058594 199.042969 C 185.113281 199.050781 185.167969 199.058594 185.222656 199.066406 C 185.304688 199.082031 185.390625 199.101562 185.476562 199.117188 C 185.53125 199.125 185.585938 199.128906 185.636719 199.136719 C 185.722656 199.152344 185.808594 199.167969 185.894531 199.183594 C 185.972656 199.191406 186.046875 199.203125 186.125 199.210938 C 186.242188 199.226562 186.359375 199.242188 186.472656 199.261719 C 186.542969 199.265625 186.613281 199.273438 186.683594 199.277344 C 186.871094 199.296875 187.054688 199.3125 187.242188 199.328125 C 187.5625 199.328125 187.886719 199.324219 188.210938 199.324219 C 188.300781 199.3125 188.390625 199.296875 188.480469 199.28125 C 188.53125 199.273438 188.582031 199.269531 188.628906 199.261719 C 188.902344 199.164062 189.179688 199.066406 189.453125 198.96875 C 189.507812 198.9375 189.5625 198.902344 189.617188 198.867188 C 190.085938 198.378906 190.550781 197.890625 191.019531 197.40625 C 191.050781 197.347656 191.085938 197.292969 191.117188 197.234375 C 191.132812 197.199219 191.148438 197.164062 191.164062 197.128906 C 191.195312 197.050781 191.230469 196.972656 191.265625 196.898438 C 191.273438 196.824219 191.28125 196.753906 191.292969 196.679688 C 191.304688 196.613281 191.316406 196.546875 191.328125 196.480469 C 191.328125 196.367188 191.332031 196.253906 191.332031 196.140625 C 191.320312 196.050781 191.308594 195.964844 191.296875 195.878906 C 191.257812 195.75 191.214844 195.617188 191.171875 195.488281 C 191.085938 195.335938 191 195.183594 190.914062 195.03125 C 190.890625 194.878906 190.867188 194.730469 190.84375 194.578125 C 190.835938 194.542969 190.828125 194.503906 190.816406 194.464844 C 192.921875 192.503906 194.183594 190.070312 194.820312 187.289062 C 194.832031 187.238281 194.84375 187.1875 194.859375 187.136719 C 194.871094 187.070312 194.878906 187.003906 194.890625 186.941406 C 194.902344 186.890625 194.914062 186.839844 194.921875 186.789062 C 194.933594 186.722656 194.945312 186.65625 194.960938 186.59375 C 194.96875 186.523438 194.976562 186.453125 194.984375 186.386719 C 195 186.292969 195.019531 186.199219 195.035156 186.105469 C 195.046875 186.027344 195.058594 185.953125 195.070312 185.875 C 195.082031 185.742188 195.09375 185.609375 195.105469 185.476562 C 195.109375 185.363281 195.113281 185.246094 195.117188 185.128906 C 195.101562 184.324219 195.085938 183.519531 195.070312 182.710938 C 195.058594 182.636719 195.042969 182.558594 195.03125 182.484375 C 195.011719 182.367188 194.992188 182.25 194.972656 182.132812 C 194.964844 182.085938 194.960938 182.042969 194.957031 181.996094 C 194.675781 181.117188 194.429688 180.222656 194.105469 179.359375 C 193.921875 178.871094 193.609375 178.425781 193.355469 177.960938 L 193.371094 177.949219 C 193.433594 177.976562 193.5 177.996094 193.554688 178.03125 C 194.117188 178.421875 194.769531 178.730469 195.207031 179.230469 C 195.746094 179.847656 196.105469 180.621094 196.539062 181.332031 C 196.554688 181.355469 196.542969 181.398438 196.539062 181.433594 C 196.472656 182.007812 196.445312 182.589844 196.335938 183.15625 C 195.6875 186.523438 195.050781 189.894531 194.351562 193.25 C 193.625 196.71875 192.832031 200.175781 192.066406 203.636719 C 191.894531 204.359375 191.757812 205.089844 191.542969 205.796875 C 191.035156 207.480469 190.488281 209.152344 189.949219 210.828125 C 189.917969 210.925781 189.824219 211.007812 189.746094 211.082031 C 189.476562 211.335938 189.171875 211.558594 188.933594 211.835938 C 188.558594 212.28125 188.234375 212.769531 188.28125 213.398438 C 188.304688 213.726562 188.484375 213.851562 188.769531 213.679688 C 189.046875 213.515625 189.285156 213.292969 189.546875 213.101562 C 189.617188 213.050781 189.707031 213.023438 189.785156 212.984375 C 189.765625 213.066406 189.757812 213.15625 189.730469 213.238281 C 189.507812 213.894531 189.265625 214.542969 189.074219 215.207031 C 188.953125 215.625 189.25 215.953125 189.59375 215.835938 C 189.730469 215.789062 189.855469 215.695312 189.988281 215.625 C 189.9375 215.800781 189.882812 215.976562 189.84375 216.15625 C 189.820312 216.265625 189.816406 216.382812 189.8125 216.5 C 189.796875 216.859375 190.035156 216.96875 190.308594 216.875 C 190.507812 216.804688 190.660156 216.59375 190.832031 216.445312 C 190.875 216.410156 190.90625 216.367188 190.945312 216.324219 C 190.964844 216.382812 190.972656 216.449219 191.003906 216.5 C 191.101562 216.65625 191.183594 216.894531 191.316406 216.933594 C 191.457031 216.96875 191.699219 216.851562 191.808594 216.722656 C 191.992188 216.507812 192.101562 216.230469 192.257812 215.984375 C 192.292969 215.933594 192.429688 215.875 192.457031 215.894531 C 192.875 216.238281 193.125 215.933594 193.285156 215.625 C 193.496094 215.230469 193.652344 214.800781 193.777344 214.371094 C 193.933594 213.828125 193.976562 213.253906 194.164062 212.726562 C 194.40625 212.042969 194.828125 211.414062 195.019531 210.71875 C 195.617188 208.554688 196.140625 206.375 196.691406 204.199219 C 196.921875 202.707031 197.527344 201.34375 198.074219 199.949219 C 198.917969 197.777344 199.632812 195.558594 200.476562 193.390625 C 201.066406 191.878906 201.84375 190.441406 202.417969 188.925781 C 203.671875 185.613281 204.375 182.144531 205.117188 178.6875 C 205.214844 178.238281 205.394531 177.878906 205.707031 177.542969 C 206.761719 176.402344 207.835938 175.277344 208.816406 174.078125 C 209.65625 173.050781 210.382812 171.925781 211.160156 170.84375 "/></g><path style=" stroke:none;fill-rule:nonzero;fill:#f89678;fill-opacity:1;" d="M 195.105469 185.476562 C 195.09375 185.609375 195.082031 185.742188 195.070312 185.875 C 195.058594 185.953125 195.046875 186.027344 195.035156 186.105469 C 195.019531 186.199219 195 186.292969 194.984375 186.386719 C 194.976562 186.453125 194.96875 186.523438 194.960938 186.59375 C 194.945312 186.65625 194.933594 186.722656 194.921875 186.789062 C 194.914062 186.839844 194.902344 186.890625 194.890625 186.941406 C 194.878906 187.003906 194.871094 187.070312 194.859375 187.136719 C 194.847656 187.1875 194.832031 187.238281 194.820312 187.289062 C 194.183594 190.070312 192.921875 192.503906 190.816406 194.464844 C 190.621094 193.921875 190.21875 193.570312 189.722656 193.304688 C 189.46875 193.171875 189.21875 193.023438 188.976562 192.859375 C 188.632812 192.628906 188.488281 192.304688 188.613281 191.894531 C 188.867188 191.054688 189.1875 190.226562 189.386719 189.371094 C 189.753906 187.804688 190.0625 186.222656 190.386719 184.648438 C 190.992188 181.667969 189.292969 179.339844 186.742188 178.394531 C 185.691406 178.003906 184.621094 177.652344 183.589844 177.214844 C 182.027344 176.546875 180.703125 176.800781 179.507812 178.027344 C 178.46875 179.089844 177.734375 180.324219 177.226562 181.695312 C 176.257812 184.289062 175.597656 186.964844 175.277344 189.71875 C 175.171875 190.601562 175.089844 191.496094 175.113281 192.386719 C 175.152344 193.59375 175.871094 194.523438 176.597656 195.421875 C 176.0625 196.917969 175.527344 198.414062 174.988281 199.90625 C 174.941406 200.035156 174.859375 200.148438 174.792969 200.265625 C 174.011719 200.070312 173.191406 199.964844 172.460938 199.652344 C 171.535156 199.257812 170.679688 198.695312 169.792969 198.207031 C 170.234375 196.503906 170.648438 194.792969 171.128906 193.097656 C 171.753906 190.890625 172.355469 188.675781 173.105469 186.511719 C 173.921875 184.160156 174.941406 181.878906 175.785156 179.539062 C 176.3125 178.070312 176.632812 176.527344 177.117188 175.042969 C 177.925781 172.570312 178.796875 170.113281 179.640625 167.648438 C 180.613281 165.386719 181.59375 163.125 183.027344 161.113281 C 184.828125 158.582031 186.722656 156.117188 188.558594 153.609375 C 189.320312 152.5625 190.054688 151.492188 190.773438 150.417969 C 190.972656 150.125 191.074219 149.769531 191.222656 149.441406 C 191.296875 149.515625 191.375 149.585938 191.441406 149.667969 C 193.347656 151.90625 195.671875 153.589844 198.375 154.714844 C 200.664062 155.664062 202.976562 156.554688 205.308594 157.394531 C 208.808594 158.65625 211.9375 160.480469 214.476562 163.242188 C 214.214844 163.855469 213.902344 164.453125 213.707031 165.089844 C 213.109375 167.035156 212.347656 168.898438 211.265625 170.628906 C 211.222656 170.695312 211.195312 170.773438 211.160156 170.84375 C 210.382812 171.925781 209.65625 173.050781 208.816406 174.078125 C 207.835938 175.277344 206.761719 176.402344 205.707031 177.542969 C 205.394531 177.878906 205.214844 178.238281 205.117188 178.6875 C 204.375 182.144531 203.671875 185.613281 202.417969 188.925781 C 201.84375 190.441406 201.066406 191.878906 200.476562 193.390625 C 199.632812 195.558594 198.917969 197.777344 198.074219 199.949219 C 197.527344 201.34375 196.921875 202.707031 196.691406 204.199219 C 196.402344 204.195312 196.113281 204.222656 195.828125 204.183594 C 194.574219 204.011719 193.320312 203.820312 192.066406 203.636719 C 192.832031 200.175781 193.625 196.71875 194.351562 193.25 C 195.050781 189.894531 195.6875 186.523438 196.335938 183.15625 C 196.445312 182.589844 196.472656 182.007812 196.539062 181.433594 C 196.542969 181.398438 196.554688 181.355469 196.539062 181.332031 C 196.105469 180.621094 195.746094 179.847656 195.207031 179.230469 C 194.769531 178.730469 194.117188 178.421875 193.554688 178.03125 C 193.5 177.996094 193.433594 177.976562 193.371094 177.949219 C 193.355469 177.941406 193.339844 177.929688 193.328125 177.921875 C 193.335938 177.933594 193.347656 177.949219 193.355469 177.960938 C 193.609375 178.425781 193.921875 178.871094 194.105469 179.359375 C 194.429688 180.222656 194.675781 181.117188 194.957031 181.996094 C 194.960938 182.042969 194.964844 182.085938 194.972656 182.132812 C 194.992188 182.25 195.011719 182.367188 195.03125 182.484375 C 195.042969 182.558594 195.058594 182.636719 195.070312 182.710938 C 195.085938 183.519531 195.101562 184.324219 195.117188 185.128906 C 195.113281 185.246094 195.109375 185.363281 195.105469 185.476562 "/><path style=" stroke:none;fill-rule:nonzero;fill:#628fae;fill-opacity:1;" d="M 214.476562 163.242188 C 211.9375 160.480469 208.808594 158.65625 205.308594 157.394531 C 202.976562 156.554688 200.664062 155.664062 198.375 154.714844 C 195.671875 153.589844 193.347656 151.90625 191.441406 149.667969 C 191.375 149.585938 191.296875 149.515625 191.222656 149.441406 C 191.636719 148.300781 191.992188 147.136719 192.472656 146.023438 C 193.722656 143.121094 195.558594 140.632812 198.101562 138.734375 C 199.105469 137.984375 200.242188 137.40625 201.347656 136.800781 C 201.917969 136.492188 202.398438 136.15625 202.652344 135.535156 C 202.75 135.308594 202.933594 135.117188 203.078125 134.90625 C 203.261719 134.925781 203.445312 134.953125 203.628906 134.964844 C 206.390625 135.132812 208.925781 135.890625 211.066406 137.730469 C 211.019531 137.84375 210.980469 137.964844 210.925781 138.078125 C 209.582031 140.695312 208.242188 143.3125 206.890625 145.921875 C 206.703125 146.285156 206.742188 146.523438 207.101562 146.746094 C 208.390625 147.5625 209.660156 148.40625 210.957031 149.214844 C 211.246094 149.394531 211.601562 149.464844 211.925781 149.585938 C 212.003906 149.589844 212.082031 149.589844 212.160156 149.59375 C 213.484375 149.546875 214.660156 149.015625 215.777344 148.375 C 216.929688 147.714844 218.027344 146.957031 219.136719 146.226562 C 219.28125 146.132812 219.378906 145.957031 219.46875 145.804688 C 219.882812 145.097656 220.289062 144.382812 220.695312 143.671875 C 223.066406 144.773438 225.007812 146.402344 226.566406 148.492188 C 225.632812 149.339844 224.734375 150.234375 223.757812 151.03125 C 221.085938 153.203125 219.117188 155.898438 217.726562 159.03125 C 217.1875 160.25 216.378906 161.269531 215.457031 162.210938 C 215.125 162.546875 214.800781 162.898438 214.476562 163.242188 "/><path style=" stroke:none;fill-rule:nonzero;fill:#acbac3;fill-opacity:1;" d="M 155.847656 171.332031 L 155.816406 171.332031 C 155.816406 171.332031 155.785156 171.335938 155.785156 171.335938 C 155.625 169.152344 155.480469 166.972656 155.292969 164.792969 C 155.132812 162.925781 154.949219 161.058594 154.722656 159.199219 C 154.316406 155.890625 153.828125 152.597656 153.039062 149.351562 C 152.566406 147.414062 152.03125 145.496094 151.09375 143.71875 C 151.03125 143.605469 150.925781 143.515625 150.839844 143.414062 C 150.765625 142.632812 149.863281 141.957031 149.078125 142.179688 C 147.535156 142.617188 146.300781 143.542969 145.285156 144.773438 C 145.273438 144.761719 145.257812 144.757812 145.238281 144.765625 C 144.300781 145.789062 143.351562 146.804688 142.429688 147.84375 C 142.113281 148.195312 141.851562 148.597656 141.570312 148.980469 C 141.050781 149.691406 140.199219 150.015625 139.402344 149.792969 C 138.625 149.574219 138.011719 148.863281 137.996094 148 C 137.992188 147.609375 138.113281 147.144531 138.339844 146.832031 C 139.144531 145.726562 139.980469 144.640625 140.878906 143.613281 C 142.238281 142.054688 143.738281 140.640625 145.511719 139.546875 C 146.914062 138.683594 148.402344 138.132812 150.082031 138.257812 C 150.160156 138.261719 150.242188 138.246094 150.324219 138.238281 C 150.394531 138.285156 150.460938 138.363281 150.542969 138.382812 C 151.652344 138.632812 152.535156 139.234375 153.269531 140.085938 C 153.398438 140.234375 153.574219 140.34375 153.726562 140.472656 C 153.746094 140.535156 153.753906 140.613281 153.792969 140.667969 C 154.605469 141.820312 155.179688 143.097656 155.652344 144.417969 C 155.742188 144.671875 155.867188 144.699219 156.09375 144.609375 C 156.371094 144.496094 156.660156 144.40625 156.945312 144.304688 C 158.328125 143.816406 159.710938 143.328125 161.097656 142.839844 L 161.117188 142.835938 L 161.136719 142.84375 C 161.410156 142.980469 161.679688 143.128906 161.957031 143.25 C 162.628906 143.539062 163.183594 144.539062 162.960938 145.226562 C 162.8125 145.683594 162.535156 146.101562 162.316406 146.539062 C 162.292969 146.585938 162.269531 146.636719 162.242188 146.683594 C 162.097656 146.707031 161.945312 146.707031 161.804688 146.753906 C 160.261719 147.285156 158.71875 147.832031 157.171875 148.351562 C 156.886719 148.449219 156.871094 148.582031 156.921875 148.839844 C 157.289062 150.699219 157.652344 152.5625 157.992188 154.429688 C 158.046875 154.734375 158.117188 154.753906 158.382812 154.648438 C 160.054688 153.996094 161.734375 153.363281 163.410156 152.722656 C 163.550781 152.773438 163.683594 152.847656 163.824219 152.875 C 164.753906 153.054688 165.351562 153.796875 165.390625 154.726562 C 165.417969 155.347656 165.082031 155.796875 164.824219 156.292969 C 164.535156 156.441406 164.242188 156.589844 163.949219 156.738281 C 163.851562 156.757812 163.746094 156.769531 163.652344 156.804688 C 162.117188 157.394531 160.589844 158.007812 159.042969 158.5625 C 158.648438 158.707031 158.601562 158.894531 158.648438 159.25 C 158.777344 160.226562 158.878906 161.203125 158.976562 162.183594 C 159.0625 162.988281 159.128906 163.796875 159.199219 164.601562 C 159.222656 164.882812 159.332031 164.953125 159.597656 164.835938 C 159.839844 164.730469 160.101562 164.664062 160.351562 164.578125 C 161.75 164.089844 163.152344 163.601562 164.550781 163.117188 C 164.6875 163.09375 164.824219 163.074219 164.964844 163.050781 C 165.195312 163.148438 165.429688 163.242188 165.664062 163.335938 C 166.4375 163.640625 167 164.609375 166.773438 165.402344 C 166.648438 165.847656 166.363281 166.25 166.148438 166.671875 C 165.726562 166.839844 165.304688 167.003906 164.882812 167.171875 C 163.167969 167.75 161.457031 168.328125 159.75 168.917969 C 159.667969 168.945312 159.589844 169.117188 159.589844 169.222656 C 159.597656 169.648438 159.636719 170.078125 159.664062 170.503906 C 159.417969 170.550781 159.167969 170.589844 158.921875 170.644531 C 157.894531 170.871094 156.871094 171.101562 155.847656 171.332031 "/><g clip-rule="nonzero" clip-path="url(#8754e7d927)"><path style=" stroke:none;fill-rule:nonzero;fill:#f89679;fill-opacity:1;" d="M 211.066406 137.730469 C 208.925781 135.890625 206.390625 135.132812 203.628906 134.964844 C 203.445312 134.953125 203.261719 134.925781 203.078125 134.90625 C 203.636719 134.199219 204.183594 133.484375 204.757812 132.785156 C 206.234375 130.984375 207.75 129.214844 209.199219 127.390625 C 210.25 126.074219 211.636719 125.238281 213.078125 124.453125 C 213.832031 124.042969 214.5625 123.59375 215.289062 123.140625 C 216.113281 122.625 216.765625 121.9375 217.195312 121.0625 C 217.847656 119.742188 218.84375 118.773438 220.113281 118.023438 C 221.644531 117.121094 223.160156 116.222656 224.9375 115.851562 C 225.609375 115.714844 226.25 115.429688 226.910156 115.238281 C 227.105469 115.183594 227.335938 115.179688 227.527344 115.226562 C 227.667969 115.261719 227.882812 115.425781 227.882812 115.53125 C 227.878906 115.835938 228.027344 115.832031 228.242188 115.820312 C 228.542969 115.808594 228.847656 115.796875 229.148438 115.824219 C 229.605469 115.863281 229.734375 116.128906 229.527344 116.542969 C 229.507812 116.578125 229.582031 116.703125 229.632812 116.71875 C 229.875 116.792969 230.152344 116.792969 230.367188 116.910156 C 230.554688 117.015625 230.773438 117.238281 230.789062 117.421875 C 230.804688 117.574219 230.546875 117.757812 230.398438 117.917969 C 230.351562 117.972656 230.273438 118.003906 230.210938 118.046875 C 230.273438 118.089844 230.335938 118.136719 230.402344 118.167969 C 230.714844 118.304688 231.0625 118.5 230.972656 118.855469 C 230.910156 119.097656 230.601562 119.3125 230.359375 119.46875 C 230.1875 119.578125 230.195312 119.585938 230.304688 119.746094 C 230.4375 119.949219 230.609375 120.277344 230.53125 120.425781 C 230.421875 120.628906 230.09375 120.714844 229.855469 120.847656 C 229.847656 120.855469 229.832031 120.851562 229.820312 120.851562 C 229.007812 120.652344 228.421875 121.113281 227.742188 121.457031 C 226.253906 122.203125 224.703125 122.832031 223.160156 123.457031 C 221.882812 123.972656 220.890625 124.773438 220.078125 125.898438 C 219.160156 127.164062 218.066406 128.296875 217.128906 129.546875 C 215.113281 132.222656 213.152344 134.9375 211.167969 137.636719 C 211.140625 137.671875 211.097656 137.699219 211.066406 137.730469 "/></g><path style=" stroke:none;fill-rule:nonzero;fill:#f89679;fill-opacity:1;" d="M 226.566406 148.492188 C 225.007812 146.402344 223.066406 144.773438 220.695312 143.671875 C 222.007812 141.589844 223.605469 139.769531 225.667969 138.398438 C 227.375 137.265625 228.972656 136.019531 230.394531 134.535156 C 230.800781 134.109375 231.476562 133.929688 232.050781 133.683594 C 234.03125 132.839844 236.074219 132.203125 238.234375 132.03125 C 238.679688 131.996094 239.136719 132.050781 239.585938 132.042969 C 240.367188 132.03125 241.152344 131.992188 241.933594 131.992188 C 242.242188 131.992188 242.5625 132.035156 242.859375 132.117188 C 243.269531 132.226562 243.332031 132.449219 243.117188 132.8125 C 243.097656 132.851562 243.140625 132.980469 243.183594 133 C 243.363281 133.074219 243.582031 133.085938 243.734375 133.191406 C 243.90625 133.316406 244.152344 133.53125 244.136719 133.679688 C 244.113281 133.867188 243.863281 134.035156 243.695312 134.191406 C 243.617188 134.261719 243.496094 134.28125 243.398438 134.328125 C 243.480469 134.386719 243.5625 134.449219 243.644531 134.503906 C 244.015625 134.765625 244.015625 135.078125 243.652344 135.382812 C 243.601562 135.425781 243.5625 135.550781 243.589844 135.597656 C 243.804688 135.984375 243.734375 136.234375 243.3125 136.359375 C 243.074219 136.429688 242.980469 136.519531 242.890625 136.78125 C 242.8125 137.015625 242.472656 137.269531 242.21875 137.300781 C 241.875 137.347656 241.503906 137.1875 241.140625 137.128906 C 240.902344 137.09375 240.640625 137.015625 240.421875 137.078125 C 238.746094 137.539062 237.070312 138 235.417969 138.53125 C 235.019531 138.660156 234.628906 138.984375 234.363281 139.324219 C 232.695312 141.433594 231.109375 143.609375 229.402344 145.683594 C 228.5625 146.707031 227.519531 147.5625 226.566406 148.492188 "/><path style=" stroke:none;fill-rule:nonzero;fill:#7a8892;fill-opacity:1;" d="M 163.949219 156.738281 C 164.242188 156.589844 164.535156 156.441406 164.824219 156.292969 C 165.507812 156.042969 165.949219 155.546875 166.058594 154.84375 C 166.175781 154.09375 165.957031 153.425781 165.3125 152.953125 C 164.734375 152.519531 164.085938 152.5625 163.429688 152.671875 C 163.035156 150.675781 162.636719 148.679688 162.242188 146.683594 C 162.269531 146.636719 162.292969 146.585938 162.316406 146.539062 C 163.707031 146.09375 164.148438 144.390625 163.128906 143.355469 C 162.574219 142.789062 161.882812 142.695312 161.136719 142.84375 L 161.117188 142.835938 L 161.097656 142.839844 C 160.6875 142.023438 160.355469 141.15625 159.851562 140.402344 C 158.910156 138.996094 157.480469 138.570312 155.917969 139.21875 C 155.148438 139.539062 154.453125 140.046875 153.726562 140.472656 C 153.574219 140.34375 153.398438 140.234375 153.269531 140.085938 C 152.535156 139.234375 151.652344 138.632812 150.542969 138.382812 C 150.460938 138.363281 150.394531 138.285156 150.324219 138.238281 C 151.65625 137.003906 153.132812 136 154.875 135.425781 C 157.941406 134.414062 161 135.382812 162.941406 137.980469 C 164.140625 139.585938 164.8125 141.4375 165.375 143.332031 C 166.582031 147.390625 167.292969 151.542969 167.753906 155.746094 C 168.007812 158.058594 168.210938 160.382812 168.4375 162.699219 C 168.441406 162.746094 168.445312 162.792969 168.445312 162.839844 C 168.59375 164.605469 168.738281 166.371094 168.886719 168.136719 L 168.859375 168.132812 C 167.585938 168.363281 166.3125 168.597656 165.035156 168.828125 C 164.984375 168.273438 164.933594 167.722656 164.882812 167.171875 C 165.304688 167.003906 165.726562 166.839844 166.148438 166.671875 C 167.085938 166.488281 167.71875 165.328125 167.433594 164.304688 C 167.144531 163.265625 165.964844 162.667969 164.964844 163.050781 C 164.824219 163.074219 164.6875 163.09375 164.550781 163.117188 C 164.347656 160.988281 164.148438 158.863281 163.949219 156.738281 "/><path style=" stroke:none;fill-rule:nonzero;fill:#7a8892;fill-opacity:1;" d="M 145.285156 144.773438 C 146.300781 143.542969 147.535156 142.617188 149.078125 142.179688 C 149.863281 141.957031 150.765625 142.632812 150.839844 143.414062 C 150.152344 144.441406 149.457031 145.464844 148.78125 146.496094 C 148.316406 147.210938 147.679688 147.597656 146.828125 147.492188 C 146.011719 147.390625 145.460938 146.917969 145.210938 146.117188 C 145.199219 146.070312 145.1875 146.023438 145.179688 145.972656 C 145.164062 145.882812 145.148438 145.792969 145.136719 145.699219 C 145.136719 145.609375 145.136719 145.519531 145.136719 145.425781 C 145.167969 145.261719 145.203125 145.097656 145.234375 144.933594 C 145.253906 144.878906 145.269531 144.828125 145.285156 144.773438 "/><path style=" stroke:none;fill-rule:nonzero;fill:#b7d5e0;fill-opacity:1;" d="M 212.160156 149.59375 C 212.082031 149.589844 212.003906 149.589844 211.925781 149.585938 C 212.003906 149.589844 212.082031 149.589844 212.160156 149.59375 "/><path style=" stroke:none;fill-rule:nonzero;fill:#bfc5ca;fill-opacity:1;" d="M 168.445312 162.839844 C 168.445312 162.792969 168.441406 162.746094 168.4375 162.699219 C 168.441406 162.746094 168.445312 162.792969 168.445312 162.839844 "/><path style=" stroke:none;fill-rule:nonzero;fill:#97a5ae;fill-opacity:1;" d="M 145.179688 145.972656 C 145.1875 146.023438 145.199219 146.070312 145.210938 146.117188 C 145.199219 146.070312 145.1875 146.023438 145.179688 145.972656 "/><path style=" stroke:none;fill-rule:nonzero;fill:#97a5ae;fill-opacity:1;" d="M 145.285156 144.773438 C 145.269531 144.828125 145.253906 144.878906 145.234375 144.933594 C 145.234375 144.875 145.234375 144.820312 145.238281 144.765625 C 145.257812 144.757812 145.273438 144.761719 145.285156 144.773438 "/><path style=" stroke:none;fill-rule:nonzero;fill:#611100;fill-opacity:1;" d="M 176.597656 195.421875 C 175.871094 194.523438 175.152344 193.59375 175.113281 192.386719 C 175.089844 191.496094 175.171875 190.601562 175.277344 189.71875 C 175.597656 186.964844 176.257812 184.289062 177.226562 181.695312 C 177.734375 180.324219 178.46875 179.089844 179.507812 178.027344 C 180.703125 176.800781 182.027344 176.546875 183.589844 177.214844 C 184.621094 177.652344 185.691406 178.003906 186.742188 178.394531 C 189.292969 179.339844 190.992188 181.667969 190.386719 184.648438 C 190.0625 186.222656 189.753906 187.804688 189.386719 189.371094 C 189.1875 190.226562 188.867188 191.054688 188.613281 191.894531 C 188.488281 192.304688 188.632812 192.628906 188.976562 192.859375 C 189.21875 193.023438 189.46875 193.171875 189.722656 193.304688 C 190.21875 193.570312 190.621094 193.921875 190.816406 194.464844 C 190.828125 194.503906 190.835938 194.542969 190.84375 194.578125 C 190.867188 194.730469 190.890625 194.878906 190.914062 195.03125 C 191 195.183594 191.085938 195.335938 191.171875 195.488281 C 191.214844 195.617188 191.257812 195.75 191.296875 195.878906 C 191.308594 195.964844 191.320312 196.050781 191.332031 196.140625 C 191.332031 196.253906 191.328125 196.367188 191.328125 196.480469 C 191.316406 196.546875 191.304688 196.613281 191.292969 196.679688 C 191.265625 196.753906 191.238281 196.828125 191.210938 196.90625 C 191.195312 196.980469 191.179688 197.054688 191.164062 197.128906 C 191.148438 197.164062 191.132812 197.199219 191.117188 197.234375 C 191.085938 197.292969 191.050781 197.347656 191.019531 197.40625 C 190.550781 197.890625 190.085938 198.378906 189.617188 198.867188 C 189.5625 198.902344 189.507812 198.9375 189.453125 198.96875 C 189.179688 199.066406 188.902344 199.164062 188.628906 199.261719 C 188.582031 199.269531 188.53125 199.273438 188.480469 199.28125 C 188.390625 199.296875 188.300781 199.3125 188.210938 199.324219 C 187.886719 199.324219 187.5625 199.328125 187.242188 199.328125 C 187.054688 199.3125 186.871094 199.296875 186.683594 199.277344 C 186.613281 199.273438 186.542969 199.265625 186.472656 199.261719 C 186.359375 199.242188 186.242188 199.226562 186.125 199.210938 C 186.046875 199.203125 185.972656 199.191406 185.894531 199.183594 C 185.808594 199.167969 185.722656 199.152344 185.636719 199.136719 C 185.585938 199.128906 185.53125 199.125 185.476562 199.117188 C 185.390625 199.101562 185.304688 199.082031 185.222656 199.066406 C 185.167969 199.058594 185.113281 199.050781 185.058594 199.042969 C 184.996094 199.027344 184.933594 199.011719 184.871094 198.996094 C 184.800781 198.980469 184.726562 198.964844 184.65625 198.949219 L 184.625 198.949219 C 184.5625 198.9375 184.503906 198.925781 184.445312 198.910156 C 183.457031 198.554688 182.46875 198.199219 181.480469 197.84375 C 181.421875 197.816406 181.363281 197.792969 181.304688 197.765625 C 181.007812 197.691406 180.714844 197.617188 180.417969 197.542969 C 180.363281 197.535156 180.308594 197.527344 180.253906 197.519531 C 180.132812 197.484375 180.007812 197.449219 179.882812 197.417969 C 179.753906 197.371094 179.621094 197.328125 179.492188 197.28125 C 179.390625 197.238281 179.285156 197.195312 179.183594 197.152344 C 179.078125 197.097656 178.976562 197.042969 178.871094 196.988281 C 178.113281 196.46875 177.355469 195.945312 176.597656 195.421875 "/><path style=" stroke:none;fill-rule:nonzero;fill:#b7d5e0;fill-opacity:1;" d="M 155.847656 171.332031 C 156.871094 171.101562 157.894531 170.871094 158.921875 170.644531 C 159.167969 170.589844 159.417969 170.550781 159.664062 170.503906 L 159.679688 170.496094 C 159.726562 171.5 159.769531 172.5 159.820312 173.5 C 159.832031 173.734375 159.90625 173.90625 160.210938 173.78125 C 160.445312 173.6875 160.695312 173.636719 160.9375 173.566406 C 162.394531 173.125 163.851562 172.683594 165.304688 172.242188 C 165.535156 172.222656 165.765625 172.175781 165.992188 172.179688 C 166.746094 172.195312 167.640625 173.03125 167.808594 173.867188 C 167.957031 174.589844 167.402344 175.589844 166.6875 175.878906 C 166.324219 176.023438 165.957031 176.148438 165.589844 176.28125 C 164.445312 176.613281 163.304688 176.941406 162.160156 177.273438 C 161.550781 177.453125 160.941406 177.640625 160.332031 177.8125 C 160.109375 177.875 160.042969 177.949219 160.070312 178.214844 C 160.136719 178.90625 160.144531 179.601562 160.15625 180.296875 C 160.1875 181.917969 160.214844 183.539062 160.226562 185.160156 C 160.238281 186.265625 159.398438 187.132812 158.332031 187.148438 C 157.273438 187.164062 156.371094 186.3125 156.335938 185.242188 C 156.300781 184.152344 156.289062 183.066406 156.261719 181.976562 C 156.21875 180.285156 156.179688 178.597656 156.117188 176.90625 C 156.066406 175.546875 155.980469 174.183594 155.914062 172.824219 C 155.886719 172.324219 155.867188 171.828125 155.847656 171.332031 "/><path style=" stroke:none;fill-rule:nonzero;fill:#e6c8c0;fill-opacity:1;" d="M 169.792969 198.207031 C 170.679688 198.695312 171.535156 199.257812 172.460938 199.652344 C 173.191406 199.964844 174.011719 200.070312 174.792969 200.265625 C 174.597656 200.824219 174.398438 201.375 174.210938 201.933594 C 173.710938 203.417969 173.179688 204.890625 172.746094 206.390625 C 172.628906 206.804688 172.863281 207.308594 172.851562 207.765625 C 172.835938 208.429688 172.773438 209.09375 172.65625 209.746094 C 172.625 209.921875 172.328125 210.046875 172.15625 210.195312 C 172.054688 210.015625 171.941406 209.839844 171.855469 209.65625 C 171.808594 209.554688 171.808594 209.429688 171.777344 209.320312 C 171.746094 209.214844 171.699219 209.117188 171.660156 209.015625 C 171.609375 209.136719 171.527344 209.253906 171.515625 209.378906 C 171.441406 210.113281 171.402344 210.851562 171.300781 211.582031 C 171.273438 211.765625 171.054688 211.917969 170.921875 212.085938 C 170.761719 211.9375 170.601562 211.796875 170.445312 211.644531 C 170.390625 211.585938 170.351562 211.511719 170.304688 211.441406 C 170.285156 211.519531 170.269531 211.59375 170.25 211.667969 C 170.195312 211.878906 170.175781 212.117188 170.066406 212.296875 C 169.953125 212.484375 169.769531 212.722656 169.585938 212.75 C 169.457031 212.769531 169.273438 212.484375 169.125 212.324219 C 169.074219 212.265625 169.058594 212.171875 169.027344 212.097656 C 168.992188 212.167969 168.957031 212.242188 168.921875 212.3125 C 168.800781 212.578125 168.757812 212.980469 168.363281 212.90625 C 167.957031 212.832031 168.046875 212.433594 168.027344 212.128906 C 168.019531 212.050781 168.019531 211.96875 168.023438 211.886719 C 168.035156 211.6875 168.070312 211.515625 167.757812 211.6875 C 167.457031 211.847656 167.164062 211.683594 167.101562 211.382812 C 167.023438 210.996094 166.972656 210.566406 167.066406 210.195312 C 167.277344 209.363281 167.269531 208.511719 167.40625 207.675781 C 167.652344 206.164062 167.941406 204.652344 168.324219 203.167969 C 168.75 201.496094 169.296875 199.859375 169.792969 198.207031 "/><path style=" stroke:none;fill-rule:nonzero;fill:#e6c8c0;fill-opacity:1;" d="M 192.066406 203.636719 C 193.320312 203.820312 194.574219 204.011719 195.828125 204.183594 C 196.113281 204.222656 196.402344 204.195312 196.691406 204.199219 C 196.140625 206.375 195.617188 208.554688 195.019531 210.71875 C 194.828125 211.414062 194.40625 212.042969 194.164062 212.726562 C 193.976562 213.253906 193.933594 213.828125 193.777344 214.371094 C 193.652344 214.800781 193.496094 215.230469 193.285156 215.625 C 193.125 215.933594 192.875 216.238281 192.457031 215.894531 C 192.429688 215.875 192.292969 215.933594 192.257812 215.984375 C 192.101562 216.230469 191.992188 216.507812 191.808594 216.722656 C 191.699219 216.851562 191.457031 216.96875 191.316406 216.933594 C 191.183594 216.894531 191.101562 216.65625 191.003906 216.5 C 190.972656 216.449219 190.964844 216.382812 190.945312 216.324219 C 190.90625 216.367188 190.875 216.410156 190.832031 216.445312 C 190.660156 216.59375 190.507812 216.804688 190.308594 216.875 C 190.035156 216.96875 189.796875 216.859375 189.8125 216.5 C 189.816406 216.382812 189.820312 216.265625 189.84375 216.15625 C 189.882812 215.976562 189.9375 215.800781 189.988281 215.625 C 189.855469 215.695312 189.730469 215.789062 189.59375 215.835938 C 189.25 215.953125 188.953125 215.625 189.074219 215.207031 C 189.265625 214.542969 189.507812 213.894531 189.730469 213.238281 C 189.757812 213.15625 189.765625 213.066406 189.785156 212.984375 C 189.707031 213.023438 189.617188 213.050781 189.546875 213.101562 C 189.285156 213.292969 189.046875 213.515625 188.769531 213.679688 C 188.484375 213.851562 188.304688 213.726562 188.28125 213.398438 C 188.234375 212.769531 188.558594 212.28125 188.933594 211.835938 C 189.171875 211.558594 189.476562 211.335938 189.746094 211.082031 C 189.824219 211.007812 189.917969 210.925781 189.949219 210.828125 C 190.488281 209.152344 191.035156 207.480469 191.542969 205.796875 C 191.757812 205.089844 191.894531 204.359375 192.066406 203.636719 "/><path style=" stroke:none;fill-rule:nonzero;fill:#a3c1cd;fill-opacity:1;" d="M 165.589844 176.28125 C 165.957031 176.148438 166.324219 176.023438 166.6875 175.878906 C 167.402344 175.589844 167.957031 174.589844 167.808594 173.867188 C 167.640625 173.03125 166.746094 172.195312 165.992188 172.179688 C 165.765625 172.175781 165.535156 172.222656 165.304688 172.242188 C 165.210938 171.125 165.113281 170.007812 165.015625 168.890625 C 165.019531 168.871094 165.027344 168.847656 165.035156 168.828125 C 166.3125 168.597656 167.585938 168.363281 168.859375 168.132812 C 168.953125 169.179688 169.054688 170.226562 169.136719 171.273438 C 169.28125 173.023438 169.414062 174.777344 169.546875 176.527344 C 169.625 177.589844 169.699219 178.652344 169.761719 179.710938 C 169.800781 180.371094 169.832031 181.03125 169.835938 181.691406 C 169.835938 182.417969 169.324219 183.09375 168.640625 183.324219 C 168.136719 181.699219 167.230469 180.371094 165.800781 179.425781 C 165.730469 178.378906 165.660156 177.332031 165.589844 176.28125 "/><path style=" stroke:none;fill-rule:nonzero;fill:#61d6fc;fill-opacity:1;" d="M 165.800781 179.425781 C 167.230469 180.371094 168.136719 181.699219 168.640625 183.324219 C 168.898438 184.234375 169.160156 185.144531 169.410156 186.058594 C 169.4375 186.152344 169.40625 186.261719 169.402344 186.367188 C 169.3125 186.3125 169.195312 186.277344 169.132812 186.203125 C 167.835938 184.621094 166.546875 183.03125 165.25 181.449219 C 164.914062 181.039062 164.542969 180.652344 164.230469 180.222656 C 164.09375 180.042969 164.011719 179.785156 163.996094 179.558594 C 163.960938 179.082031 164.304688 178.8125 164.757812 178.957031 C 165.117188 179.070312 165.453125 179.265625 165.800781 179.425781 "/><path style=" stroke:none;fill-rule:nonzero;fill:#62d6fc;fill-opacity:1;" d="M 210.949219 181.933594 C 211 181.941406 211.175781 181.925781 211.285156 182.003906 C 211.480469 182.144531 211.730469 182.320312 211.773438 182.519531 C 211.8125 182.699219 211.664062 183.007812 211.5 183.132812 C 209.316406 184.773438 207.117188 186.390625 204.917969 188.007812 C 204.855469 188.054688 204.761719 188.054688 204.679688 188.074219 C 204.6875 187.992188 204.667969 187.886719 204.710938 187.824219 C 205.726562 186.386719 206.707031 184.925781 207.78125 183.535156 C 208.503906 182.605469 209.957031 181.933594 210.949219 181.933594 "/><path style=" stroke:none;fill-rule:nonzero;fill:#62d6fc;fill-opacity:1;" d="M 162.289062 190.425781 C 162.988281 190.464844 163.738281 190.816406 164.339844 191.394531 C 165.179688 192.207031 165.953125 193.085938 166.75 193.941406 C 166.800781 193.996094 166.796875 194.105469 166.820312 194.1875 C 166.734375 194.195312 166.640625 194.234375 166.566406 194.210938 C 164.792969 193.632812 163.019531 193.046875 161.464844 191.96875 C 161.128906 191.734375 160.921875 191.457031 161.027344 191.035156 C 161.125 190.640625 161.539062 190.421875 162.289062 190.425781 "/><path style=" stroke:none;fill-rule:nonzero;fill:#62d6fc;fill-opacity:1;" d="M 206.574219 202.933594 C 207.074219 203.085938 207.492188 203.160156 207.851562 203.339844 C 208.039062 203.433594 208.234375 203.714844 208.234375 203.914062 C 208.238281 204.089844 208.019531 204.371094 207.835938 204.4375 C 207.253906 204.652344 206.648438 204.8125 206.039062 204.953125 C 204.644531 205.28125 203.246094 205.585938 201.847656 205.894531 C 201.746094 205.914062 201.636719 205.886719 201.53125 205.882812 C 201.589844 205.785156 201.632812 205.65625 201.71875 205.597656 C 202.699219 204.921875 203.660156 204.210938 204.6875 203.613281 C 205.269531 203.277344 205.972656 203.144531 206.574219 202.933594 "/><path style=" stroke:none;fill-rule:nonzero;fill:#62d6fc;fill-opacity:1;" d="M 208.777344 198.746094 C 208.425781 199.027344 208.214844 199.316406 207.949219 199.382812 C 206.671875 199.703125 205.382812 199.96875 204.09375 200.238281 C 203.6875 200.324219 203.269531 200.371094 202.859375 200.421875 C 202.777344 200.433594 202.6875 200.394531 202.601562 200.378906 C 202.621094 200.308594 202.621094 200.210938 202.667969 200.175781 C 203.660156 199.464844 204.503906 198.53125 205.683594 198.089844 C 206.460938 197.800781 207.253906 197.765625 208.023438 198.089844 C 208.269531 198.195312 208.449219 198.453125 208.777344 198.746094 "/><path style=" stroke:none;fill-rule:nonzero;fill:#62d7fc;fill-opacity:1;" d="M 174.828125 174.089844 C 174.71875 175.28125 174.640625 176.179688 174.550781 177.074219 C 174.542969 177.15625 174.46875 177.230469 174.425781 177.304688 C 174.359375 177.238281 174.261719 177.179688 174.238281 177.101562 C 173.800781 175.703125 173.15625 174.363281 173.074219 172.867188 C 173.074219 172.832031 173.0625 172.796875 173.058594 172.761719 C 173.003906 172.261719 173.21875 171.75 173.535156 171.710938 C 174.03125 171.648438 174.238281 172.027344 174.363281 172.398438 C 174.574219 173.039062 174.722656 173.699219 174.828125 174.089844 "/><path style=" stroke:none;fill-rule:nonzero;fill:#814d43;fill-opacity:1;" d="M 187.242188 199.328125 C 187.5625 199.328125 187.886719 199.324219 188.210938 199.324219 C 187.886719 199.324219 187.5625 199.328125 187.242188 199.328125 "/><path style=" stroke:none;fill-rule:nonzero;fill:#9b7d79;fill-opacity:1;" d="M 190.914062 195.03125 C 190.890625 194.878906 190.867188 194.730469 190.84375 194.578125 C 190.867188 194.730469 190.890625 194.878906 190.914062 195.03125 "/><path style=" stroke:none;fill-rule:nonzero;fill:#e6c8c0;fill-opacity:1;" d="M 195.105469 185.476562 C 195.109375 185.363281 195.113281 185.246094 195.117188 185.128906 C 195.113281 185.246094 195.109375 185.363281 195.105469 185.476562 "/><path style=" stroke:none;fill-rule:nonzero;fill:#814d43;fill-opacity:1;" d="M 191.328125 196.480469 C 191.328125 196.367188 191.332031 196.253906 191.332031 196.140625 C 191.332031 196.253906 191.328125 196.367188 191.328125 196.480469 "/><path style=" stroke:none;fill-rule:nonzero;fill:#9b7d79;fill-opacity:1;" d="M 179.492188 197.28125 C 179.621094 197.328125 179.753906 197.371094 179.882812 197.417969 C 179.753906 197.371094 179.621094 197.328125 179.492188 197.28125 "/><path style=" stroke:none;fill-rule:nonzero;fill:#9b7d79;fill-opacity:1;" d="M 191.296875 195.878906 C 191.257812 195.75 191.214844 195.617188 191.171875 195.488281 C 191.214844 195.617188 191.257812 195.75 191.296875 195.878906 "/><path style=" stroke:none;fill-rule:nonzero;fill:#9b7d79;fill-opacity:1;" d="M 178.871094 196.988281 C 178.976562 197.042969 179.078125 197.097656 179.183594 197.152344 C 179.078125 197.097656 178.976562 197.042969 178.871094 196.988281 "/><path style=" stroke:none;fill-rule:nonzero;fill:#9b7d79;fill-opacity:1;" d="M 186.472656 199.261719 C 186.542969 199.265625 186.613281 199.273438 186.683594 199.277344 C 186.613281 199.273438 186.542969 199.265625 186.472656 199.261719 "/><path style=" stroke:none;fill-rule:nonzero;fill:#9b7d79;fill-opacity:1;" d="M 185.894531 199.183594 C 185.972656 199.191406 186.046875 199.203125 186.125 199.210938 C 186.046875 199.203125 185.972656 199.191406 185.894531 199.183594 "/><path style=" stroke:none;fill-rule:nonzero;fill:#e6c8c0;fill-opacity:1;" d="M 195.070312 182.710938 C 195.058594 182.636719 195.042969 182.558594 195.03125 182.484375 C 195.042969 182.558594 195.058594 182.636719 195.070312 182.710938 "/><path style=" stroke:none;fill-rule:nonzero;fill:#e6c8c0;fill-opacity:1;" d="M 195.035156 186.105469 C 195.046875 186.027344 195.058594 185.953125 195.070312 185.875 C 195.058594 185.953125 195.046875 186.027344 195.035156 186.105469 "/><path style=" stroke:none;fill-rule:nonzero;fill:#e6c8c0;fill-opacity:1;" d="M 194.960938 186.59375 C 194.96875 186.523438 194.976562 186.453125 194.984375 186.386719 C 194.976562 186.453125 194.96875 186.523438 194.960938 186.59375 "/><path style=" stroke:none;fill-rule:nonzero;fill:#9b7d79;fill-opacity:1;" d="M 184.65625 198.949219 C 184.726562 198.964844 184.800781 198.980469 184.871094 198.996094 C 184.800781 198.980469 184.726562 198.964844 184.65625 198.949219 "/><path style=" stroke:none;fill-rule:nonzero;fill:#814d43;fill-opacity:1;" d="M 191.210938 196.90625 C 191.238281 196.828125 191.265625 196.753906 191.292969 196.679688 C 191.28125 196.753906 191.273438 196.824219 191.265625 196.898438 C 191.246094 196.898438 191.230469 196.902344 191.210938 196.90625 "/><path style=" stroke:none;fill-rule:nonzero;fill:#9b7d79;fill-opacity:1;" d="M 191.210938 196.90625 C 191.230469 196.902344 191.246094 196.898438 191.265625 196.898438 C 191.230469 196.972656 191.195312 197.050781 191.164062 197.128906 C 191.179688 197.054688 191.195312 196.980469 191.210938 196.90625 "/><path style=" stroke:none;fill-rule:nonzero;fill:#9b7d79;fill-opacity:1;" d="M 181.304688 197.765625 C 181.363281 197.792969 181.421875 197.816406 181.480469 197.84375 C 181.421875 197.816406 181.363281 197.792969 181.304688 197.765625 "/><path style=" stroke:none;fill-rule:nonzero;fill:#fbc1af;fill-opacity:1;" d="M 194.890625 186.941406 C 194.902344 186.890625 194.914062 186.839844 194.921875 186.789062 C 194.914062 186.839844 194.902344 186.890625 194.890625 186.941406 "/><path style=" stroke:none;fill-rule:nonzero;fill:#97a5ae;fill-opacity:1;" d="M 184.445312 198.910156 C 184.503906 198.925781 184.5625 198.9375 184.625 198.949219 C 184.5625 198.9375 184.503906 198.925781 184.445312 198.910156 "/><path style=" stroke:none;fill-rule:nonzero;fill:#9b7d79;fill-opacity:1;" d="M 189.453125 198.96875 C 189.507812 198.9375 189.5625 198.902344 189.617188 198.867188 C 189.5625 198.902344 189.507812 198.9375 189.453125 198.96875 "/><path style=" stroke:none;fill-rule:nonzero;fill:#e6c8c0;fill-opacity:1;" d="M 194.972656 182.132812 C 194.964844 182.085938 194.960938 182.042969 194.957031 181.996094 C 194.960938 182.042969 194.964844 182.085938 194.972656 182.132812 "/><path style=" stroke:none;fill-rule:nonzero;fill:#9b7d79;fill-opacity:1;" d="M 180.253906 197.519531 C 180.308594 197.527344 180.363281 197.535156 180.417969 197.542969 C 180.363281 197.535156 180.308594 197.527344 180.253906 197.519531 "/><path style=" stroke:none;fill-rule:nonzero;fill:#9b7d79;fill-opacity:1;" d="M 185.476562 199.117188 C 185.53125 199.125 185.585938 199.128906 185.636719 199.136719 C 185.585938 199.128906 185.53125 199.125 185.476562 199.117188 "/><path style=" stroke:none;fill-rule:nonzero;fill:#814d43;fill-opacity:1;" d="M 188.480469 199.28125 C 188.53125 199.273438 188.582031 199.269531 188.628906 199.261719 C 188.582031 199.269531 188.53125 199.273438 188.480469 199.28125 "/><path style=" stroke:none;fill-rule:nonzero;fill:#fbc1af;fill-opacity:1;" d="M 194.820312 187.289062 C 194.832031 187.238281 194.847656 187.1875 194.859375 187.136719 C 194.84375 187.1875 194.832031 187.238281 194.820312 187.289062 "/><path style=" stroke:none;fill-rule:nonzero;fill:#9b7d79;fill-opacity:1;" d="M 191.019531 197.40625 C 191.050781 197.347656 191.085938 197.292969 191.117188 197.234375 C 191.085938 197.292969 191.050781 197.347656 191.019531 197.40625 "/><path style=" stroke:none;fill-rule:nonzero;fill:#9b7d79;fill-opacity:1;" d="M 185.058594 199.042969 C 185.113281 199.050781 185.167969 199.058594 185.222656 199.066406 C 185.167969 199.058594 185.113281 199.050781 185.058594 199.042969 "/><path style=" stroke:none;fill-rule:nonzero;fill:#d7f0f8;fill-opacity:1;" d="M 193.355469 177.960938 C 193.347656 177.949219 193.335938 177.933594 193.328125 177.921875 C 193.339844 177.929688 193.355469 177.941406 193.371094 177.949219 L 193.355469 177.960938 "/><path style=" stroke:none;fill-rule:nonzero;fill:#97a5ae;fill-opacity:1;" d="M 163.410156 152.722656 C 163.414062 152.703125 163.417969 152.6875 163.429688 152.671875 C 164.085938 152.5625 164.734375 152.519531 165.3125 152.953125 C 165.957031 153.425781 166.175781 154.09375 166.058594 154.84375 C 165.949219 155.546875 165.507812 156.042969 164.824219 156.292969 C 165.082031 155.796875 165.417969 155.347656 165.390625 154.726562 C 165.351562 153.796875 164.753906 153.054688 163.824219 152.875 C 163.683594 152.847656 163.550781 152.773438 163.410156 152.722656 "/><path style=" stroke:none;fill-rule:nonzero;fill:#97a5ae;fill-opacity:1;" d="M 161.136719 142.84375 C 161.882812 142.695312 162.574219 142.789062 163.128906 143.355469 C 164.148438 144.390625 163.707031 146.09375 162.316406 146.539062 C 162.535156 146.101562 162.8125 145.683594 162.960938 145.226562 C 163.183594 144.539062 162.628906 143.539062 161.957031 143.25 C 161.679688 143.128906 161.410156 142.980469 161.136719 142.84375 "/><path style=" stroke:none;fill-rule:nonzero;fill:#97a5ae;fill-opacity:1;" d="M 164.964844 163.050781 C 165.964844 162.667969 167.144531 163.265625 167.433594 164.304688 C 167.71875 165.328125 167.085938 166.488281 166.148438 166.671875 C 166.363281 166.25 166.648438 165.847656 166.773438 165.402344 C 167 164.609375 166.4375 163.640625 165.664062 163.335938 C 165.429688 163.242188 165.195312 163.148438 164.964844 163.050781 "/><path style=" stroke:none;fill-rule:nonzero;fill:#d7f0f8;fill-opacity:1;" d="M 159.679688 170.496094 C 160.816406 170.289062 161.949219 170.085938 163.082031 169.871094 C 163.195312 169.847656 163.339844 169.792969 163.398438 169.703125 C 163.789062 169.125 164.386719 168.980469 165.015625 168.890625 C 165.113281 170.007812 165.210938 171.125 165.304688 172.242188 C 163.851562 172.683594 162.394531 173.125 160.9375 173.566406 C 160.695312 173.636719 160.445312 173.6875 160.210938 173.78125 C 159.90625 173.90625 159.832031 173.734375 159.820312 173.5 C 159.769531 172.5 159.726562 171.5 159.679688 170.496094 "/><g style="fill:#ffe05c;fill-opacity:1;"><g transform="translate(98.410695, 239.811888)"><path style="stroke:none" d="M 2.15625 1.8125 L 21.609375 -11.71875 C 21.960938 -11.96875 22.3125 -11.882812 22.65625 -11.46875 L 26.203125 -6.390625 C 27.390625 -4.671875 27.867188 -2.960938 27.640625 -1.265625 C 27.410156 0.429688 26.273438 1.984375 24.234375 3.390625 L 23.921875 3.609375 C 21.890625 5.023438 20.03125 5.539062 18.34375 5.15625 C 16.65625 4.78125 15.210938 3.734375 14.015625 2.015625 L 11.03125 -2.28125 L 3.140625 3.21875 C 2.734375 3.5 2.363281 3.40625 2.03125 2.9375 C 1.707031 2.46875 1.75 2.09375 2.15625 1.8125 Z M 12.328125 -3.171875 L 15.3125 1.125 C 16.269531 2.5 17.390625 3.289062 18.671875 3.5 C 19.960938 3.71875 21.382812 3.285156 22.9375 2.203125 L 23.234375 2 C 24.765625 0.9375 25.648438 -0.226562 25.890625 -1.5 C 26.140625 -2.78125 25.785156 -4.109375 24.828125 -5.484375 L 21.84375 -9.78125 Z M 12.328125 -3.171875 "/></g></g><g style="fill:#ffe05c;fill-opacity:1;"><g transform="translate(110.278141, 256.488583)"><path style="stroke:none" d="M 6.625 -3.390625 L 14.125 -11.3125 C 15.851562 -13.132812 17.566406 -14.035156 19.265625 -14.015625 C 20.972656 -13.992188 22.585938 -13.257812 24.109375 -11.8125 C 25.628906 -10.363281 26.453125 -8.785156 26.578125 -7.078125 C 26.710938 -5.367188 25.914062 -3.601562 24.1875 -1.78125 L 16.6875 6.140625 C 14.96875 7.953125 13.25 8.84375 11.53125 8.8125 C 9.8125 8.78125 8.191406 8.039062 6.671875 6.59375 C 5.148438 5.144531 4.332031 3.570312 4.21875 1.875 C 4.101562 0.175781 4.90625 -1.578125 6.625 -3.390625 Z M 7.875 -2.203125 C 5.320312 0.484375 5.300781 3.015625 7.8125 5.390625 C 9.03125 6.546875 10.285156 7.097656 11.578125 7.046875 C 12.878906 7.003906 14.171875 6.3125 15.453125 4.96875 L 22.953125 -2.953125 C 24.234375 -4.304688 24.863281 -5.632812 24.84375 -6.9375 C 24.820312 -8.238281 24.203125 -9.46875 22.984375 -10.625 C 20.472656 -13 17.9375 -12.832031 15.375 -10.125 Z M 7.875 -2.203125 "/></g></g><g style="fill:#ffe05c;fill-opacity:1;"><g transform="translate(126.079104, 271.068899)"><path style="stroke:none" d="M 5.78125 -4.6875 L 11.46875 -14.015625 C 12.769531 -16.148438 14.253906 -17.382812 15.921875 -17.71875 C 17.597656 -18.050781 19.332031 -17.671875 21.125 -16.578125 C 22.90625 -15.484375 24.035156 -14.113281 24.515625 -12.46875 C 25.003906 -10.820312 24.597656 -8.929688 23.296875 -6.796875 L 17.609375 2.53125 C 16.304688 4.664062 14.804688 5.894531 13.109375 6.21875 C 11.421875 6.539062 9.6875 6.15625 7.90625 5.0625 C 6.113281 3.96875 4.984375 2.601562 4.515625 0.96875 C 4.054688 -0.664062 4.476562 -2.550781 5.78125 -4.6875 Z M 7.25 -3.796875 C 5.3125 -0.628906 5.816406 1.851562 8.765625 3.65625 C 10.191406 4.53125 11.535156 4.804688 12.796875 4.484375 C 14.054688 4.171875 15.171875 3.222656 16.140625 1.640625 L 21.828125 -7.6875 C 22.796875 -9.269531 23.132812 -10.691406 22.84375 -11.953125 C 22.550781 -13.222656 21.691406 -14.296875 20.265625 -15.171875 C 17.316406 -16.972656 14.875 -16.289062 12.9375 -13.125 Z M 7.25 -3.796875 "/></g></g><g style="fill:#ffe05c;fill-opacity:1;"><g transform="translate(144.421637, 281.819421)"><path style="stroke:none" d="M 2.8125 0.25 L 11.046875 -21.953125 C 11.210938 -22.398438 11.5625 -22.523438 12.09375 -22.328125 C 12.632812 -22.128906 12.820312 -21.804688 12.65625 -21.359375 L 4.734375 0 L 14.265625 3.53125 C 14.671875 3.675781 14.773438 4.003906 14.578125 4.515625 C 14.390625 5.035156 14.09375 5.222656 13.6875 5.078125 L 3.328125 1.234375 C 2.804688 1.046875 2.632812 0.71875 2.8125 0.25 Z M 2.8125 0.25 "/></g></g><g style="fill:#ffe05c;fill-opacity:1;"><g transform="translate(160.769532, 287.479248)"><path style="stroke:none" d=""/></g></g><g style="fill:#ffe05c;fill-opacity:1;"><g transform="translate(169.061879, 289.633955)"><path style="stroke:none" d="M 1.671875 -3.234375 C 1.691406 -3.460938 1.796875 -3.671875 1.984375 -3.859375 C 2.171875 -4.046875 2.359375 -4.132812 2.546875 -4.125 C 2.679688 -4.101562 2.867188 -3.929688 3.109375 -3.609375 L 3.953125 -2.515625 C 4.265625 -2.117188 4.785156 -1.738281 5.515625 -1.375 C 6.242188 -1.007812 7.113281 -0.773438 8.125 -0.671875 C 9.882812 -0.503906 11.273438 -0.804688 12.296875 -1.578125 C 13.316406 -2.347656 13.910156 -3.578125 14.078125 -5.265625 C 14.203125 -6.535156 14.015625 -7.625 13.515625 -8.53125 C 13.023438 -9.4375 12.375 -10.113281 11.5625 -10.5625 C 10.757812 -11.007812 9.878906 -11.472656 8.921875 -11.953125 C 7.972656 -12.441406 7.09375 -12.914062 6.28125 -13.375 C 5.476562 -13.832031 4.832031 -14.523438 4.34375 -15.453125 C 3.851562 -16.378906 3.671875 -17.503906 3.796875 -18.828125 C 3.921875 -20.015625 4.238281 -21.003906 4.75 -21.796875 C 5.257812 -22.585938 5.898438 -23.160156 6.671875 -23.515625 C 7.441406 -23.867188 8.207031 -24.09375 8.96875 -24.1875 C 9.726562 -24.28125 10.53125 -24.285156 11.375 -24.203125 C 12.75 -24.078125 14.003906 -23.753906 15.140625 -23.234375 C 16.285156 -22.722656 16.832031 -22.21875 16.78125 -21.71875 C 16.757812 -21.507812 16.65625 -21.296875 16.46875 -21.078125 C 16.289062 -20.867188 16.097656 -20.769531 15.890625 -20.78125 C 15.773438 -20.800781 15.53125 -20.9375 15.15625 -21.1875 C 14.789062 -21.445312 14.257812 -21.71875 13.5625 -22 C 12.875 -22.289062 12.082031 -22.476562 11.1875 -22.5625 C 9.707031 -22.707031 8.429688 -22.5 7.359375 -21.9375 C 6.296875 -21.382812 5.6875 -20.332031 5.53125 -18.78125 C 5.445312 -17.851562 5.582031 -17.050781 5.9375 -16.375 C 6.300781 -15.707031 6.800781 -15.171875 7.4375 -14.765625 C 8.070312 -14.367188 8.78125 -13.988281 9.5625 -13.625 C 10.351562 -13.269531 11.140625 -12.878906 11.921875 -12.453125 C 12.710938 -12.035156 13.421875 -11.546875 14.046875 -10.984375 C 14.671875 -10.421875 15.148438 -9.65625 15.484375 -8.6875 C 15.816406 -7.71875 15.921875 -6.582031 15.796875 -5.28125 C 15.566406 -2.945312 14.765625 -1.265625 13.390625 -0.234375 C 12.015625 0.796875 10.265625 1.207031 8.140625 1 C 6.171875 0.800781 4.582031 0.21875 3.375 -0.75 C 2.175781 -1.71875 1.609375 -2.546875 1.671875 -3.234375 Z M 1.671875 -3.234375 "/></g></g><g style="fill:#ffe05c;fill-opacity:1;"><g transform="translate(188.16507, 291.28843)"><path style="stroke:none" d="M 2.640625 -1 L 0.4375 -24.546875 C 0.382812 -25.046875 0.632812 -25.320312 1.1875 -25.375 L 13.390625 -26.515625 C 13.859375 -26.554688 14.117188 -26.316406 14.171875 -25.796875 C 14.191406 -25.566406 14.144531 -25.359375 14.03125 -25.171875 C 13.914062 -24.992188 13.753906 -24.894531 13.546875 -24.875 L 2.234375 -23.8125 L 3.171875 -13.734375 L 8.609375 -14.25 C 8.816406 -14.269531 9 -14.203125 9.15625 -14.046875 C 9.3125 -13.898438 9.398438 -13.71875 9.421875 -13.5 C 9.472656 -13 9.253906 -12.726562 8.765625 -12.6875 L 3.328125 -12.171875 L 4.265625 -2.0625 L 15.578125 -3.125 C 15.785156 -3.144531 15.960938 -3.070312 16.109375 -2.90625 C 16.253906 -2.75 16.335938 -2.554688 16.359375 -2.328125 C 16.410156 -1.796875 16.203125 -1.507812 15.734375 -1.46875 L 3.53125 -0.328125 C 2.976562 -0.273438 2.679688 -0.5 2.640625 -1 Z M 2.640625 -1 "/></g></g><g style="fill:#ffe05c;fill-opacity:1;"><g transform="translate(207.85546, 289.226276)"><path style="stroke:none" d="M 2.390625 -1.5 L -4.359375 -24.203125 C -4.410156 -24.398438 -4.390625 -24.582031 -4.296875 -24.75 C -4.210938 -24.914062 -4.054688 -25.035156 -3.828125 -25.109375 L 1.796875 -26.78125 C 3.867188 -27.394531 5.695312 -27.394531 7.28125 -26.78125 C 8.863281 -26.164062 9.992188 -24.722656 10.671875 -22.453125 C 11.765625 -18.753906 10.597656 -16.117188 7.171875 -14.546875 L 15.46875 -5.890625 C 15.582031 -5.773438 15.660156 -5.65625 15.703125 -5.53125 C 15.765625 -5.3125 15.738281 -5.09375 15.625 -4.875 C 15.507812 -4.664062 15.316406 -4.519531 15.046875 -4.4375 C 14.785156 -4.363281 14.332031 -4.648438 13.6875 -5.296875 L 5.5 -13.875 L 0.90625 -12.515625 L 4.03125 -1.984375 C 4.175781 -1.503906 3.972656 -1.179688 3.421875 -1.015625 C 2.878906 -0.859375 2.535156 -1.019531 2.390625 -1.5 Z M 0.453125 -14.046875 L 5.171875 -15.453125 C 8.710938 -16.503906 9.992188 -18.664062 9.015625 -21.9375 C 8.054688 -25.175781 5.804688 -26.269531 2.265625 -25.21875 L -2.453125 -23.8125 Z M 0.453125 -14.046875 "/></g></g><g style="fill:#ffe05c;fill-opacity:1;"><g transform="translate(227.253707, 283.214342)"><path style="stroke:none" d="M -10.8125 -21.90625 C -10.925781 -22.101562 -10.925781 -22.304688 -10.8125 -22.515625 C -10.695312 -22.722656 -10.53125 -22.890625 -10.3125 -23.015625 C -9.957031 -23.203125 -9.65625 -23.171875 -9.40625 -22.921875 L 6.6875 -6.84375 L 2.296875 -29.15625 C 2.222656 -29.5 2.347656 -29.753906 2.671875 -29.921875 C 2.890625 -30.035156 3.125 -30.078125 3.375 -30.046875 C 3.625 -30.015625 3.800781 -29.910156 3.90625 -29.734375 C 3.914062 -29.691406 3.925781 -29.648438 3.9375 -29.609375 C 3.945312 -29.578125 3.957031 -29.550781 3.96875 -29.53125 L 8.703125 -5.09375 C 8.796875 -4.6875 8.609375 -4.363281 8.140625 -4.125 C 7.691406 -3.882812 7.316406 -3.90625 7.015625 -4.1875 L -10.671875 -21.734375 C -10.722656 -21.765625 -10.769531 -21.820312 -10.8125 -21.90625 Z M -10.8125 -21.90625 "/></g></g><g style="fill:#ffe05c;fill-opacity:1;"><g transform="translate(244.595547, 273.392649)"><path style="stroke:none" d="M 1.75 -2.21875 L -12.234375 -21.34375 C -12.515625 -21.726562 -12.421875 -22.085938 -11.953125 -22.421875 C -11.492188 -22.765625 -11.125 -22.742188 -10.84375 -22.359375 L 3.140625 -3.234375 C 3.429688 -2.828125 3.34375 -2.453125 2.875 -2.109375 C 2.414062 -1.773438 2.039062 -1.8125 1.75 -2.21875 Z M 1.75 -2.21875 "/></g></g><g style="fill:#ffe05c;fill-opacity:1;"><g transform="translate(251.958342, 268.319432)"><path style="stroke:none" d="M -3.109375 -6.765625 L -10.703125 -14.609375 C -12.429688 -16.390625 -13.234375 -18.148438 -13.109375 -19.890625 C -12.992188 -21.628906 -12.191406 -23.222656 -10.703125 -24.671875 C -9.179688 -26.148438 -7.601562 -26.921875 -5.96875 -26.984375 C -4.332031 -27.054688 -2.976562 -26.539062 -1.90625 -25.4375 C -1.601562 -25.125 -1.441406 -24.863281 -1.421875 -24.65625 C -1.410156 -24.445312 -1.515625 -24.238281 -1.734375 -24.03125 C -2.140625 -23.632812 -2.507812 -23.609375 -2.84375 -23.953125 C -3.195312 -24.273438 -3.570312 -24.535156 -3.96875 -24.734375 C -4.375 -24.941406 -4.867188 -25.109375 -5.453125 -25.234375 C -6.046875 -25.359375 -6.695312 -25.273438 -7.40625 -24.984375 C -8.113281 -24.691406 -8.832031 -24.191406 -9.5625 -23.484375 C -12.09375 -21.023438 -12.0625 -18.460938 -9.46875 -15.796875 L -1.875 -7.953125 C 0.707031 -5.296875 3.289062 -5.222656 5.875 -7.734375 C 6.46875 -8.304688 6.910156 -8.878906 7.203125 -9.453125 C 7.503906 -10.023438 7.679688 -10.519531 7.734375 -10.9375 C 7.796875 -11.351562 7.738281 -11.804688 7.5625 -12.296875 C 7.382812 -12.785156 7.226562 -13.15625 7.09375 -13.40625 C 6.957031 -13.65625 6.742188 -13.972656 6.453125 -14.359375 C 6.140625 -14.742188 6.164062 -15.113281 6.53125 -15.46875 C 6.757812 -15.6875 6.976562 -15.78125 7.1875 -15.75 C 7.40625 -15.726562 7.671875 -15.554688 7.984375 -15.234375 C 9.046875 -14.140625 9.507812 -12.765625 9.375 -11.109375 C 9.25 -9.453125 8.414062 -7.878906 6.875 -6.390625 C 5.394531 -4.960938 3.789062 -4.222656 2.0625 -4.171875 C 0.34375 -4.117188 -1.378906 -4.984375 -3.109375 -6.765625 Z M -3.109375 -6.765625 "/></g></g><g style="fill:#ffe05c;fill-opacity:1;"><g transform="translate(266.324797, 254.007084)"><path style="stroke:none" d="M 0.9375 -2.65625 L -18.53125 -16.109375 C -18.945312 -16.390625 -19 -16.757812 -18.6875 -17.21875 L -11.71875 -27.296875 C -11.445312 -27.691406 -11.09375 -27.742188 -10.65625 -27.453125 C -10.46875 -27.316406 -10.34375 -27.140625 -10.28125 -26.921875 C -10.21875 -26.710938 -10.242188 -26.523438 -10.359375 -26.359375 L -16.828125 -17.015625 L -8.5 -11.265625 L -5.390625 -15.765625 C -5.265625 -15.929688 -5.097656 -16.023438 -4.890625 -16.046875 C -4.679688 -16.078125 -4.476562 -16.023438 -4.28125 -15.890625 C -3.875 -15.609375 -3.8125 -15.269531 -4.09375 -14.875 L -7.203125 -10.375 L 1.15625 -4.59375 L 7.625 -13.9375 C 7.738281 -14.101562 7.90625 -14.191406 8.125 -14.203125 C 8.34375 -14.222656 8.546875 -14.171875 8.734375 -14.046875 C 9.171875 -13.742188 9.253906 -13.394531 8.984375 -13 L 2.015625 -2.921875 C 1.703125 -2.460938 1.34375 -2.375 0.9375 -2.65625 Z M 0.9375 -2.65625 "/></g></g><g style="fill:#ffffff;fill-opacity:1;"><g transform="translate(123.912278, 127.259622)"><path style="stroke:none" d="M -12.859375 -29.875 L 3.265625 -10.9375 L 11.40625 -17.875 L 15.4375 -13.140625 L 1.890625 -1.609375 L -18.265625 -25.28125 Z M -12.859375 -29.875 "/></g></g><g style="fill:#ffffff;fill-opacity:1;"><g transform="translate(138.318225, 113.114497)"><path style="stroke:none" d="M 2.625 -17.953125 C 3.238281 -16.460938 4.15625 -15.242188 5.375 -14.296875 C 6.601562 -13.347656 7.976562 -12.75 9.5 -12.5 C 11.019531 -12.25 12.519531 -12.429688 14 -13.046875 C 15.476562 -13.660156 16.660156 -14.59375 17.546875 -15.84375 C 18.429688 -17.101562 18.96875 -18.5 19.15625 -20.03125 C 19.351562 -21.5625 19.144531 -23.070312 18.53125 -24.5625 C 17.90625 -26.050781 16.976562 -27.269531 15.75 -28.21875 C 14.53125 -29.164062 13.164062 -29.757812 11.65625 -30 C 10.15625 -30.238281 8.664062 -30.050781 7.1875 -29.4375 C 5.707031 -28.820312 4.515625 -27.890625 3.609375 -26.640625 C 2.710938 -25.398438 2.164062 -24.015625 1.96875 -22.484375 C 1.78125 -20.953125 2 -19.441406 2.625 -17.953125 Z M -3.875 -15.25 C -4.71875 -17.269531 -5.140625 -19.320312 -5.140625 -21.40625 C -5.148438 -23.5 -4.78125 -25.507812 -4.03125 -27.4375 C -3.28125 -29.363281 -2.191406 -31.082031 -0.765625 -32.59375 C 0.660156 -34.101562 2.382812 -35.28125 4.40625 -36.125 C 6.425781 -36.957031 8.472656 -37.347656 10.546875 -37.296875 C 12.617188 -37.242188 14.597656 -36.800781 16.484375 -35.96875 C 18.367188 -35.132812 20.050781 -33.976562 21.53125 -32.5 C 23.019531 -31.03125 24.1875 -29.285156 25.03125 -27.265625 C 25.863281 -25.242188 26.285156 -23.175781 26.296875 -21.0625 C 26.304688 -18.957031 25.9375 -16.945312 25.1875 -15.03125 C 24.445312 -13.125 23.363281 -11.410156 21.9375 -9.890625 C 20.519531 -8.378906 18.800781 -7.207031 16.78125 -6.375 C 14.757812 -5.53125 12.707031 -5.132812 10.625 -5.1875 C 8.550781 -5.25 6.566406 -5.6875 4.671875 -6.5 C 2.785156 -7.320312 1.097656 -8.476562 -0.390625 -9.96875 C -1.878906 -11.46875 -3.039062 -13.226562 -3.875 -15.25 Z M -3.875 -15.25 "/></g></g><g style="fill:#ffffff;fill-opacity:1;"><g transform="translate(168.914803, 100.998746)"><path style="stroke:none" d="M 6.96875 -31.78125 L 9.03125 -7 L 19.703125 -7.890625 L 20.21875 -1.6875 L 2.46875 -0.203125 L -0.109375 -31.1875 Z M 6.96875 -31.78125 "/></g></g><g style="fill:#ffffff;fill-opacity:1;"><g transform="translate(189.794007, 99.558416)"><path style="stroke:none" d="M 13.109375 -29.875 L 9.84375 1.046875 L 2.8125 0.296875 L 6.078125 -30.625 Z M 13.109375 -29.875 "/></g></g><g style="fill:#ffffff;fill-opacity:1;"><g transform="translate(200.700382, 99.849935)"><path style="stroke:none" d="M 9.390625 -23.125 L 11.28125 -29.046875 L 32.109375 -22.390625 L 30.21875 -16.46875 L 23.171875 -18.71875 L 15.609375 4.984375 L 8.875 2.828125 L 16.4375 -20.875 Z M 9.390625 -23.125 "/></g></g><g style="fill:#ffffff;fill-opacity:1;"><g transform="translate(222.951538, 105.60268)"><path style="stroke:none" d="M 16.734375 -6.984375 C 15.785156 -5.703125 15.21875 -4.289062 15.03125 -2.75 C 14.851562 -1.21875 15.046875 0.257812 15.609375 1.6875 C 16.179688 3.125 17.113281 4.320312 18.40625 5.28125 C 19.695312 6.226562 21.101562 6.757812 22.625 6.875 C 24.15625 6.988281 25.625 6.726562 27.03125 6.09375 C 28.445312 5.46875 29.628906 4.515625 30.578125 3.234375 C 31.535156 1.929688 32.109375 0.515625 32.296875 -1.015625 C 32.484375 -2.554688 32.289062 -4.035156 31.71875 -5.453125 C 31.15625 -6.867188 30.226562 -8.050781 28.9375 -9 C 27.644531 -9.957031 26.234375 -10.5 24.703125 -10.625 C 23.179688 -10.757812 21.710938 -10.507812 20.296875 -9.875 C 18.878906 -9.25 17.691406 -8.285156 16.734375 -6.984375 Z M 11.0625 -11.171875 C 12.363281 -12.929688 13.910156 -14.347656 15.703125 -15.421875 C 17.492188 -16.503906 19.410156 -17.222656 21.453125 -17.578125 C 23.492188 -17.929688 25.523438 -17.882812 27.546875 -17.4375 C 29.578125 -16.988281 31.472656 -16.113281 33.234375 -14.8125 C 34.992188 -13.519531 36.382812 -11.972656 37.40625 -10.171875 C 38.4375 -8.367188 39.078125 -6.441406 39.328125 -4.390625 C 39.578125 -2.335938 39.453125 -0.296875 38.953125 1.734375 C 38.453125 3.765625 37.550781 5.660156 36.25 7.421875 C 34.957031 9.179688 33.410156 10.601562 31.609375 11.6875 C 29.804688 12.78125 27.894531 13.5 25.875 13.84375 C 23.851562 14.1875 21.828125 14.140625 19.796875 13.703125 C 17.765625 13.265625 15.867188 12.398438 14.109375 11.109375 C 12.347656 9.804688 10.957031 8.25 9.9375 6.4375 C 8.914062 4.625 8.269531 2.695312 8 0.65625 C 7.726562 -1.382812 7.847656 -3.425781 8.359375 -5.46875 C 8.867188 -7.507812 9.769531 -9.410156 11.0625 -11.171875 Z M 11.0625 -11.171875 "/></g></g></g></svg>